<?xml version="1.0" standalone="no"?>
<!DOCTYPE svg PUBLIC "-//W3C//DTD SVG 20010904//EN"
 "http://www.w3.org/TR/2001/REC-SVG-20010904/DTD/svg10.dtd">
<svg version="1.0" xmlns="http://www.w3.org/2000/svg"
 width="512.000000pt" height="512.000000pt" viewBox="0 0 512.000000 512.000000"
 preserveAspectRatio="xMidYMid meet">

<g transform="translate(0.000000,512.000000) scale(0.100000,-0.100000)"
fill="rgb(104, 113, 173)" stroke="none">
<path d="M1760 4787 c-19 -6 -58 -34 -85 -62 -75 -75 -90 -141 -60 -273 18
-78 54 -145 121 -222 26 -30 59 -80 73 -110 l26 -55 3 -421 3 -420 -556 -974
c-306 -535 -568 -995 -581 -1023 -166 -327 10 -756 359 -874 l82 -28 1410 0
1410 0 75 23 c139 44 247 125 329 248 121 180 144 424 57 609 -13 28 -276 493
-585 1034 l-562 985 3 420 3 421 26 55 c14 30 47 80 73 110 67 77 103 144 121
222 28 126 15 193 -52 268 -75 84 -31 80 -897 79 -524 -1 -772 -4 -796 -12z
m1577 -173 c23 -23 25 -31 20 -79 -7 -73 -34 -129 -95 -200 -29 -33 -65 -85
-82 -116 -55 -104 -60 -146 -60 -561 l0 -378 -560 0 -560 0 0 378 c0 415 -5
457 -60 561 -17 31 -53 83 -82 116 -61 71 -88 127 -95 200 -5 48 -3 56 20 79
l26 26 751 0 751 0 26 -26z m378 -2476 c308 -539 568 -1004 579 -1032 94 -256
-74 -558 -342 -615 -75 -16 -2709 -16 -2784 0 -176 37 -321 185 -358 366 -15
69 -8 181 14 244 8 25 32 76 53 112 l37 67 338 0 339 0 24 25 c30 29 32 74 6
106 l-19 24 -296 5 -296 5 113 197 112 198 338 0 338 0 24 25 c33 32 33 78 0
110 l-24 25 -291 0 c-159 0 -290 2 -290 4 0 2 60 109 134 237 l133 234 341 5
c316 5 341 6 361 24 32 29 29 88 -5 115 -26 20 -38 21 -315 21 l-288 0 137
240 137 240 595 0 595 0 560 -982z"/>
</g>
</svg>
