<?xml version="1.0" standalone="no"?>
<!DOCTYPE svg PUBLIC "-//W3C//DTD SVG 20010904//EN"
 "http://www.w3.org/TR/2001/REC-SVG-20010904/DTD/svg10.dtd">
<svg version="1.0" xmlns="http://www.w3.org/2000/svg"
 width="512.000000pt" height="512.000000pt" viewBox="0 0 512.000000 512.000000"
 preserveAspectRatio="xMidYMid meet">

<g transform="translate(0.000000,512.000000) scale(0.100000,-0.100000)"
fill="rgb(104, 113, 173)" stroke="none">
<path d="M3786 5087 c-25 -14 -48 -39 -63 -66 -20 -39 -23 -58 -23 -157 l0
-113 -677 -3 -678 -3 -49 -23 c-73 -33 -111 -66 -157 -133 l-40 -60 -602 3
c-554 3 -605 4 -634 21 -44 24 -65 58 -75 125 -5 31 -18 70 -29 88 -53 87
-196 84 -251 -4 -44 -72 -19 -232 53 -338 60 -89 171 -161 284 -184 34 -7 269
-10 695 -8 l645 3 51 27 c52 27 124 99 150 151 l15 27 649 0 650 0 0 -2148 0
-2149 23 -44 c15 -27 39 -53 63 -67 37 -21 49 -22 190 -20 146 3 152 4 186 30
74 57 68 -148 68 2246 l0 2150 148 4 c126 3 152 6 182 23 97 58 97 202 0 260
-30 17 -56 20 -182 23 l-146 4 -4 127 c-3 121 -4 130 -30 163 -45 59 -77 68
-235 68 -124 0 -142 -3 -177 -23z m324 -97 c20 -20 20 -33 20 -2430 0 -2397 0
-2410 -20 -2430 -18 -18 -33 -20 -145 -20 -115 0 -126 2 -145 22 l-20 22 0
2406 0 2406 20 22 c19 20 30 22 145 22 112 0 127 -2 145 -20z m-3436 -282 c9
-12 16 -38 16 -58 1 -75 62 -157 148 -198 34 -16 88 -17 668 -17 721 0 642
-11 715 97 25 36 57 68 87 85 l47 28 673 3 672 3 0 -56 0 -55 -664 0 c-656 0
-664 0 -690 -21 -14 -11 -37 -39 -51 -63 -32 -54 -71 -91 -117 -110 -32 -14
-120 -16 -662 -16 -598 0 -627 1 -689 20 -126 39 -213 136 -237 266 -11 56
-10 67 4 89 21 32 59 33 80 3z m3829 -67 c27 -11 41 -39 32 -63 -11 -29 -55
-38 -180 -38 l-125 0 0 55 0 55 124 0 c69 0 136 -4 149 -9z"/>
<path d="M1455 4011 c-73 -18 -136 -69 -166 -136 -14 -30 -19 -64 -19 -137 l0
-97 -253 -3 -253 -3 -66 -33 c-79 -39 -129 -93 -158 -169 -20 -54 -20 -71 -18
-1341 l3 -1287 24 -49 c33 -66 91 -122 160 -155 l56 -26 353 -3 352 -4 0 -46
c0 -87 27 -141 71 -142 15 0 17 -17 20 -127 3 -107 7 -134 25 -163 63 -108
209 -109 281 -1 21 31 23 46 23 158 l0 124 30 11 c41 14 60 54 60 127 l0 60
353 3 c308 4 358 6 399 22 66 25 141 95 175 164 l28 57 0 1285 c0 1245 -1
1287 -19 1335 -26 65 -103 147 -169 176 -49 23 -65 24 -304 27 l-253 4 0 91
c0 108 -24 172 -83 224 -63 55 -111 63 -381 62 -133 -1 -254 -4 -271 -8z m574
-120 c46 -33 61 -75 61 -171 l0 -80 -35 0 -35 0 0 74 c0 59 -4 78 -21 100
l-20 26 -250 0 c-301 0 -289 5 -289 -120 l0 -80 -35 0 -35 0 0 95 c0 91 1 95
31 130 17 19 45 39 63 44 17 6 144 9 281 8 246 -2 250 -2 284 -26z m-109 -201
l0 -50 -190 0 -190 0 0 50 0 50 190 0 190 0 0 -50z m765 -164 c65 -20 121 -76
140 -140 10 -34 15 -97 15 -203 l0 -153 -1111 0 -1110 0 3 178 c3 198 12 231
74 279 71 54 39 52 1025 53 772 0 923 -2 964 -14z m155 -1622 c0 -706 -3
-1039 -11 -1068 -14 -55 -59 -110 -112 -139 -41 -21 -52 -22 -418 -25 -443 -4
-411 6 -419 -121 l-5 -76 -150 0 -150 0 -3 75 c-2 60 -7 79 -24 97 l-21 23
-346 0 c-200 0 -365 5 -391 11 -66 15 -115 53 -145 112 l-25 51 0 1043 0 1043
1110 0 1110 0 0 -1026z m-1050 -1646 c0 -123 -10 -148 -60 -148 -56 0 -65 17
-68 144 l-4 116 66 0 66 0 0 -112z"/>
<path d="M1070 2588 c-30 -15 -53 -37 -67 -63 l-23 -40 0 -605 0 -605 23 -40
c14 -26 37 -48 67 -62 l44 -23 613 0 c499 0 620 3 646 14 41 17 81 62 96 105
16 48 16 1174 0 1222 -15 43 -55 88 -96 105 -26 11 -147 14 -646 14 l-613 0
-44 -22z m1285 -103 l25 -24 0 -581 0 -581 -25 -24 -24 -25 -606 0 c-592 0
-605 0 -625 20 -20 20 -20 33 -20 610 0 577 0 590 20 610 20 20 33 20 625 20
l606 0 24 -25z"/>
<path d="M1698 2408 c-28 -22 -144 -203 -201 -316 -103 -201 -135 -368 -94
-480 41 -108 128 -186 245 -218 115 -32 242 6 328 98 72 77 89 125 88 243 0
83 -5 114 -28 180 -37 106 -103 237 -183 360 -96 147 -115 164 -155 133z m88
-213 c30 -47 77 -131 104 -187 99 -210 106 -341 22 -438 -50 -59 -103 -83
-182 -84 -98 -1 -175 47 -223 139 -42 82 -18 233 64 398 34 67 148 257 155
257 3 0 29 -38 60 -85z"/>
</g>
</svg>
