<svg width="40" height="40" viewBox="0 0 40 40" fill="none" xmlns="http://www.w3.org/2000/svg">
<path opacity="0.2" d="M36 11H12C10.3431 11 9 12.3431 9 14V32C9 33.6569 10.3431 35 12 35H36C37.6569 35 39 33.6569 39 32V14C39 12.3431 37.6569 11 36 11Z" fill="rgb(104, 113, 173)"/>
<path fill-rule="evenodd" clip-rule="evenodd" d="M34.0004 8H6.00037C5.73515 8 5.4808 8.10536 5.29326 8.29289C5.10572 8.48043 5.00037 8.73478 5.00037 9V31C5.00037 31.2652 5.10572 31.5196 5.29326 31.7071C5.4808 31.8946 5.73515 32 6.00037 32H34.0004C34.2656 32 34.5199 31.8946 34.7075 31.7071C34.895 31.5196 35.0004 31.2652 35.0004 31V9C35.0004 8.73478 34.895 8.48043 34.7075 8.29289C34.5199 8.10536 34.2656 8 34.0004 8ZM7.00037 30V10H33.0004V30H7.00037Z" fill="rgb(104, 113, 173)"/>
<path fill-rule="evenodd" clip-rule="evenodd" d="M34.648 9.76L20.558 21.76C20.3767 21.9147 20.146 21.9994 19.9077 21.9991C19.6693 21.9987 19.4389 21.9132 19.258 21.758L5.34604 9.758C5.19117 9.62474 5.08084 9.44724 5.02989 9.24939C4.97894 9.05153 4.98981 8.84282 5.06105 8.65133C5.13228 8.45984 5.26046 8.29477 5.42834 8.17832C5.59621 8.06188 5.79573 7.99964 6.00004 8H34C34.2043 8.00039 34.4035 8.06333 34.571 8.18033C34.7384 8.29734 34.866 8.46281 34.9365 8.65449C35.0071 8.84617 35.0173 9.05487 34.9657 9.2525C34.9141 9.45014 34.8033 9.62725 34.648 9.76ZM31.284 10H8.69004L19.914 19.682L31.284 10Z" fill="#002D4E"/>
</svg>
