<?xml version="1.0" standalone="no"?>
<!DOCTYPE svg PUBLIC "-//W3C//DTD SVG 20010904//EN"
 "http://www.w3.org/TR/2001/REC-SVG-20010904/DTD/svg10.dtd">
<svg version="1.0" xmlns="http://www.w3.org/2000/svg"
 width="512.000000pt" height="512.000000pt" viewBox="0 0 512.000000 512.000000"
 preserveAspectRatio="xMidYMid meet">

<g transform="translate(0.000000,512.000000) scale(0.100000,-0.100000)"
fill="rgb(104, 113, 173)" stroke="none">
<path d="M2524 4830 c-50 -20 -271 -351 -370 -552 l-38 -76 -95 88 c-132 121
-242 209 -269 216 -28 8 -74 -11 -89 -35 -25 -40 -71 -261 -88 -418 -4 -35
-10 -63 -15 -63 -4 0 -39 12 -76 26 -214 80 -270 89 -309 49 -28 -28 -30 -49
-15 -175 67 -541 318 -1051 613 -1247 204 -135 438 -193 787 -193 349 0 583
58 787 193 295 196 546 706 613 1247 15 126 13 147 -15 175 -39 40 -82 34
-288 -41 -54 -20 -99 -35 -101 -33 -2 2 -9 47 -15 99 -13 108 -43 260 -66 337
-16 54 -49 83 -94 83 -26 0 -113 -67 -256 -198 l-120 -110 -56 107 c-89 171
-275 457 -328 505 -22 20 -70 28 -97 16z m122 -302 c175 -264 287 -496 365
-761 54 -181 62 -232 63 -400 1 -154 2 -159 25 -178 29 -24 62 -24 91 -1 18
15 24 35 33 105 10 83 6 157 -19 327 l-6 36 179 86 c98 47 228 104 288 126 61
22 119 44 129 48 18 7 19 4 12 -52 -41 -354 -237 -816 -424 -1001 -97 -95
-228 -171 -367 -213 -61 -18 -157 -40 -177 -40 -6 0 25 36 71 80 85 84 171
192 171 216 0 28 -24 63 -50 74 -39 16 -66 -1 -129 -80 -61 -76 -176 -181
-272 -246 l-69 -47 -68 45 c-210 140 -361 326 -422 523 -31 100 -37 237 -16
365 40 235 156 546 295 790 49 85 203 320 211 320 3 0 42 -55 86 -122z m-695
-381 l96 -99 -42 -119 c-23 -66 -45 -121 -49 -121 -4 0 -61 26 -127 58 l-120
58 6 61 c8 76 45 307 52 318 7 12 79 -49 184 -156z m1427 23 c12 -69 23 -152
27 -185 l6 -61 -120 -58 c-66 -32 -123 -58 -127 -58 -4 0 -26 55 -50 121 l-41
121 134 131 c74 73 138 127 143 123 5 -5 17 -65 28 -134z m-1943 -295 c131
-47 204 -79 350 -152 72 -36 131 -66 133 -68 2 -1 -5 -54 -14 -116 -47 -323
51 -597 303 -846 47 -45 80 -83 75 -83 -21 0 -117 22 -177 40 -139 42 -270
118 -367 213 -187 185 -383 647 -424 1001 -7 56 -6 59 12 52 10 -4 60 -23 109
-41z"/>
<path d="M132 3412 c-62 -20 -131 -109 -132 -172 0 -26 106 -527 141 -664 45
-176 109 -303 270 -532 169 -242 260 -337 437 -455 122 -82 144 -89 180 -62
30 22 41 75 21 99 -6 8 -55 43 -108 78 -185 121 -277 224 -488 541 -76 113
-103 167 -141 280 -34 100 -164 688 -160 720 4 26 44 32 68 10 10 -9 57 -131
106 -272 55 -160 99 -273 119 -302 17 -25 79 -117 138 -203 l107 -157 146 -89
146 -89 47 -89 c55 -102 83 -124 128 -102 15 7 34 26 41 41 13 27 10 36 -51
155 -35 70 -84 174 -107 230 -41 98 -43 106 -29 130 10 19 24 28 47 30 39 4
19 26 274 -292 l193 -239 249 -113 c138 -62 274 -130 304 -150 108 -75 203
-211 237 -340 11 -44 15 -113 15 -281 l0 -223 -382 2 -383 3 -6 70 c-17 186
-52 273 -155 384 -81 88 -120 109 -163 87 -30 -16 -41 -34 -41 -67 0 -10 34
-56 76 -101 42 -46 82 -95 90 -110 22 -42 44 -147 44 -210 0 -56 -1 -58 -27
-58 -45 0 -109 -45 -132 -93 -19 -39 -21 -61 -21 -215 0 -96 5 -183 11 -199
15 -40 48 -73 94 -94 37 -17 77 -19 587 -19 467 0 554 2 593 15 40 14 50 14
90 0 39 -13 126 -15 593 -15 510 0 550 2 587 19 46 21 79 54 94 94 6 16 11
103 11 199 0 154 -2 176 -21 215 -23 48 -87 93 -132 93 -26 0 -27 2 -27 56 0
81 27 186 62 238 61 92 183 190 483 385 191 125 279 215 454 465 217 309 237
361 356 917 40 183 56 277 51 300 -9 47 -38 92 -82 125 -32 25 -47 29 -99 29
-50 0 -69 -5 -103 -28 -23 -15 -53 -44 -66 -65 -14 -20 -63 -148 -110 -284
l-85 -247 -125 -183 c-84 -124 -135 -189 -157 -201 -17 -10 -33 -16 -35 -15
-2 2 1 21 6 43 28 122 -57 239 -183 252 -48 5 -64 2 -109 -20 -47 -23 -74 -53
-257 -281 l-204 -255 -181 -82 c-254 -115 -322 -150 -393 -202 -125 -93 -232
-257 -273 -421 -17 -67 -20 -113 -20 -300 l0 -221 -40 -17 c-37 -15 -43 -15
-80 0 l-40 17 0 221 c0 187 -3 233 -20 300 -41 164 -148 328 -273 421 -71 52
-139 87 -393 202 l-181 82 -204 255 c-183 228 -210 258 -257 281 -45 22 -61
25 -109 20 -126 -13 -211 -130 -183 -252 5 -22 8 -41 6 -43 -2 -1 -18 5 -35
15 -22 12 -73 77 -157 201 l-125 183 -85 247 c-47 136 -96 264 -110 284 -46
71 -149 113 -222 90z m4835 -158 c9 -23 -121 -617 -159 -729 -38 -113 -65
-167 -141 -280 -213 -320 -305 -422 -492 -543 -301 -194 -397 -268 -488 -375
-79 -93 -110 -179 -126 -352 l-6 -70 -382 -3 -383 -2 0 223 c0 168 4 237 15
281 34 129 129 265 237 340 30 20 166 88 304 150 l249 113 193 239 c255 318
235 296 274 292 23 -2 37 -11 47 -30 14 -24 12 -32 -29 -130 -23 -56 -72 -160
-107 -230 -61 -119 -64 -128 -51 -155 7 -15 26 -34 41 -41 45 -22 73 0 128
102 l47 89 146 89 146 89 107 157 c59 86 121 178 138 203 20 29 64 141 119
301 48 141 95 263 104 272 21 21 61 21 69 0z m-2493 -2510 c13 -12 16 -41 16
-148 0 -90 -4 -138 -13 -149 -11 -16 -53 -17 -552 -15 l-540 3 -3 150 c-2 132
-1 151 15 162 13 10 135 13 539 13 462 0 524 -2 538 -16z m1249 3 c16 -11 17
-30 15 -162 l-3 -150 -540 -3 c-499 -2 -541 -1 -552 15 -9 11 -13 59 -13 149
0 107 3 136 16 148 14 14 76 16 538 16 404 0 526 -3 539 -13z"/>
</g>
</svg>
