<?xml version="1.0" standalone="no"?>
<!DOCTYPE svg PUBLIC "-//W3C//DTD SVG 20010904//EN"
 "http://www.w3.org/TR/2001/REC-SVG-20010904/DTD/svg10.dtd">
<svg version="1.0" xmlns="http://www.w3.org/2000/svg"
 width="512.000000pt" height="512.000000pt" viewBox="0 0 512.000000 512.000000"
 preserveAspectRatio="xMidYMid meet">

<g transform="translate(0.000000,512.000000) scale(0.100000,-0.100000)"
fill="rgb(104, 113, 173)" stroke="none">
<path d="M207 5050 c-71 -27 -129 -80 -168 -152 l-34 -63 0 -2275 0 -2275 35
-64 c22 -40 52 -78 82 -102 95 -74 -16 -70 1528 -67 l1385 3 50 27 c66 35 118
90 149 158 24 52 26 64 26 221 0 180 0 179 55 179 49 0 158 43 229 91 81 54
142 123 186 210 62 122 60 82 60 1167 0 696 3 1007 11 1044 35 165 163 288
330 319 207 38 419 -113 458 -325 7 -39 11 -280 11 -693 l0 -632 -30 -16 c-98
-50 -150 -138 -150 -252 0 -70 -1 -73 -29 -87 -43 -23 -117 -110 -137 -164
-15 -39 -18 -89 -22 -307 -5 -378 -11 -368 212 -375 l151 -5 3 -260 c2 -250 3
-260 24 -282 12 -13 33 -23 49 -23 84 0 89 19 89 320 l0 250 140 0 c228 0 220
-12 220 342 0 292 -5 327 -61 411 -17 26 -51 61 -75 78 -42 28 -44 33 -44 77
0 115 -51 216 -132 261 l-47 26 -3 680 c-3 624 -5 685 -22 735 -50 152 -156
279 -287 344 -77 38 -185 66 -254 66 -69 0 -177 -28 -253 -65 -132 -66 -233
-184 -285 -335 l-22 -65 -5 -1045 -5 -1045 -32 -66 c-56 -113 -178 -204 -289
-217 l-44 -5 0 2014 0 2014 -26 55 c-31 68 -83 123 -149 158 l-50 27 -1390 2
c-1341 2 -1392 2 -1438 -17z m2829 -167 c69 -50 64 150 64 -2323 0 -2473 5
-2273 -64 -2323 l-31 -22 -1366 -3 -1366 -2 -33 22 c-18 13 -43 36 -54 51
l-21 28 0 2249 0 2249 21 28 c11 15 36 38 54 51 l33 22 1366 -2 1366 -3 31
-22z m1680 -3228 c48 -20 64 -63 64 -170 0 -48 4 -94 10 -104 5 -10 29 -26 52
-36 87 -34 118 -87 118 -200 l0 -75 -282 2 -283 3 0 80 c1 105 23 145 104 183
32 16 61 38 68 52 8 15 13 64 13 120 0 103 11 130 60 149 34 13 36 13 76 -4z
m244 -810 l0 -65 -285 0 -285 0 0 65 0 65 285 0 285 0 0 -65z"/>
<path d="M505 4509 c-46 -26 -45 -13 -45 -609 0 -550 1 -567 20 -587 11 -13
38 -24 62 -28 24 -3 532 -5 1130 -3 l1087 3 23 23 23 23 3 563 2 564 -24 29
-24 28 -1119 2 c-799 2 -1124 -1 -1138 -8z m2145 -580 c0 -341 -3 -429 -12
-423 -7 5 -42 27 -78 50 -149 96 -356 182 -525 219 -44 10 -82 19 -84 21 -2 2
22 46 53 99 65 112 72 151 30 184 -38 30 -77 27 -106 -7 -13 -15 -52 -78 -88
-140 l-64 -112 -136 0 c-350 -1 -668 -91 -937 -266 l-83 -54 0 430 0 430 1015
0 1015 0 0 -431z m-973 -276 c-2 -5 -30 -54 -62 -110 l-57 -103 -360 0 c-243
0 -357 3 -353 10 13 21 172 93 285 130 99 33 227 60 335 73 59 8 216 7 212 0z
m396 -52 c102 -29 164 -54 270 -109 l92 -47 -339 -3 c-186 -1 -341 0 -344 2
-2 3 21 50 52 104 l56 100 70 -14 c39 -7 103 -22 143 -33z"/>
<path d="M1503 3020 c-563 -64 -1010 -474 -1120 -1027 -24 -122 -24 -358 0
-473 55 -259 161 -462 339 -646 245 -253 557 -386 908 -385 272 1 490 66 715
216 257 172 444 440 521 749 36 140 44 361 19 507 -44 266 -165 500 -355 689
-188 187 -414 307 -667 354 -105 20 -268 27 -360 16z m247 -160 c387 -47 705
-270 878 -615 85 -172 118 -329 109 -538 -6 -165 -37 -291 -106 -432 -157
-321 -447 -544 -795 -610 -93 -18 -304 -21 -386 -5 -351 67 -637 272 -794 569
-170 323 -179 673 -25 1000 111 236 281 408 513 521 201 98 403 134 606 110z"/>
<path d="M1604 2740 c-35 -14 -54 -50 -54 -103 0 -40 5 -53 29 -78 36 -36 73
-37 106 -4 21 20 25 34 25 79 0 69 -6 83 -41 101 -32 17 -36 17 -65 5z"/>
<path d="M935 2455 c-39 -39 -34 -79 19 -131 49 -50 88 -57 124 -24 48 45 32
111 -38 157 -43 30 -75 29 -105 -2z"/>
<path d="M2204 2436 c-54 -54 -61 -102 -18 -135 42 -33 71 -27 125 28 57 56
61 81 20 122 -42 42 -74 38 -127 -15z"/>
<path d="M1551 2428 c-25 -13 -58 -40 -75 -61 -25 -31 -31 -49 -34 -102 l-4
-64 -52 -29 c-28 -16 -74 -54 -102 -84 -212 -224 -165 -583 97 -744 l59 -37 0
-49 c0 -86 58 -165 138 -188 57 -15 83 -12 140 16 66 33 102 89 109 172 5 57
6 59 50 82 113 60 213 207 233 346 28 182 -59 374 -213 474 -64 41 -64 42 -70
94 -11 112 -77 183 -178 192 -44 4 -63 1 -98 -18z m107 -150 c9 -9 12 -139 12
-524 0 -549 0 -545 -50 -529 -20 6 -20 11 -20 530 0 409 3 524 13 528 21 9 32
8 45 -5z m-218 -525 l0 -258 -44 45 c-114 120 -113 315 2 438 17 18 33 32 36
32 3 0 6 -116 6 -257z m482 139 c27 -53 31 -75 31 -137 0 -62 -4 -84 -31 -137
-17 -35 -45 -76 -61 -92 l-31 -30 0 259 0 259 31 -30 c16 -16 44 -57 61 -92z"/>
<path d="M694 1831 c-28 -12 -54 -49 -54 -77 0 -12 9 -33 21 -48 18 -23 27
-26 84 -26 79 0 109 20 109 74 0 50 -28 75 -90 81 -27 3 -59 1 -70 -4z"/>
<path d="M2461 1829 c-54 -21 -69 -89 -28 -127 34 -32 137 -32 167 0 21 23 26
68 10 98 -18 34 -98 50 -149 29z"/>
<path d="M954 1186 c-33 -32 -44 -51 -44 -74 0 -39 27 -70 67 -78 27 -5 37 0
77 36 54 50 63 77 42 118 -30 58 -83 58 -142 -2z"/>
<path d="M2185 1205 c-39 -39 -34 -79 19 -131 53 -53 85 -57 127 -15 16 16 29
37 29 46 0 49 -75 125 -124 125 -15 0 -38 -11 -51 -25z"/>
<path d="M1582 960 c-57 -53 -34 -184 33 -190 69 -7 95 21 95 102 0 49 -4 63
-25 83 -30 31 -73 32 -103 5z"/>
</g>
</svg>
