<?xml version="1.0" standalone="no"?>
<!DOCTYPE svg PUBLIC "-//W3C//DTD SVG 20010904//EN"
 "http://www.w3.org/TR/2001/REC-SVG-20010904/DTD/svg10.dtd">
<svg version="1.0" xmlns="http://www.w3.org/2000/svg"
 width="512.000000pt" height="512.000000pt" viewBox="0 0 512.000000 512.000000"
 preserveAspectRatio="xMidYMid meet">

<g transform="translate(0.000000,512.000000) scale(0.100000,-0.100000)"
fill="rgb(104, 113, 173)" stroke="none">
<path d="M772 4800 c-223 -59 -395 -232 -452 -456 -19 -75 -20 -116 -20 -1391
l0 -1313 60 0 60 0 0 1308 c0 1436 -3 1357 61 1484 40 79 128 167 207 207 128
64 42 61 1544 61 l1368 0 0 60 0 60 -1377 -1 c-1323 0 -1381 -1 -1451 -19z"/>
<path d="M3680 4760 l0 -60 288 0 c223 0 301 -3 345 -15 185 -48 324 -187 372
-372 23 -86 23 -3420 0 -3506 -48 -185 -187 -324 -372 -372 -86 -23 -3420 -23
-3506 0 -185 48 -324 187 -372 372 -11 43 -15 118 -15 305 l0 248 -60 0 -60 0
0 -253 c0 -220 3 -264 20 -331 57 -225 231 -399 456 -456 76 -20 114 -20 1784
-20 1666 0 1709 0 1784 20 225 57 399 231 456 456 20 76 20 114 20 1784 0
1670 0 1708 -20 1784 -57 225 -231 399 -456 456 -68 18 -111 20 -371 20 l-293
0 0 -60z"/>
<path d="M2972 3830 c-290 -76 -490 -325 -509 -632 l-6 -98 -28 0 c-53 0 -242
41 -348 76 -275 90 -506 235 -717 451 -75 76 -118 113 -133 113 -34 0 -67 -44
-102 -138 -31 -83 -33 -94 -33 -227 -1 -129 2 -147 27 -220 16 -44 44 -105 62
-135 18 -30 32 -56 31 -58 -2 -1 -19 5 -40 13 -37 16 -70 9 -88 -19 -27 -39 9
-214 69 -336 38 -78 61 -110 128 -177 78 -79 80 -82 58 -92 -42 -19 -48 -50
-20 -119 59 -145 189 -283 328 -350 46 -22 95 -44 109 -49 24 -10 21 -12 -48
-47 -173 -87 -364 -128 -582 -125 -153 2 -170 -3 -170 -52 0 -41 21 -58 168
-133 203 -103 419 -169 644 -196 147 -19 455 -8 593 19 572 115 1032 470 1291
996 73 149 124 296 153 440 22 112 41 277 41 366 0 32 4 59 9 59 17 0 190 171
245 243 59 77 69 113 40 141 -21 21 -48 20 -113 -4 -29 -12 -56 -19 -58 -16
-3 3 4 18 16 35 12 16 37 64 57 105 40 85 40 119 -1 138 -22 10 -39 4 -132
-40 -107 -50 -227 -92 -264 -92 -10 0 -42 18 -71 40 -68 52 -175 104 -259 124
-91 22 -254 20 -347 -4z m328 -115 c81 -21 168 -68 235 -125 58 -50 61 -51
108 -45 26 3 89 19 139 36 50 16 93 28 95 26 4 -5 -112 -113 -160 -150 -41
-31 -47 -59 -20 -89 19 -22 71 -23 161 -4 l63 13 -28 -30 c-15 -16 -58 -53
-94 -82 l-66 -53 -6 -149 c-7 -161 -25 -279 -63 -416 -128 -459 -455 -863
-864 -1071 -137 -69 -288 -122 -445 -156 -75 -16 -149 -23 -295 -27 -215 -6
-347 7 -515 52 -100 26 -268 85 -262 91 2 3 44 11 93 19 196 32 402 114 559
222 58 40 71 53 73 79 4 44 -18 61 -85 69 -184 21 -332 107 -434 252 -16 23
-29 44 -29 47 0 3 25 6 55 6 79 0 157 18 178 42 36 42 9 90 -59 102 -117 22
-278 140 -348 255 -33 54 -84 187 -75 196 3 2 27 -2 54 -10 27 -9 79 -18 116
-21 59 -6 69 -4 88 15 30 30 26 59 -11 89 -181 148 -256 303 -245 502 3 52 11
112 18 132 l12 37 86 -80 c265 -247 581 -412 925 -483 108 -23 270 -40 300
-32 36 9 46 41 34 107 -22 115 9 269 76 384 64 108 208 214 337 249 71 19 229
20 299 1z"/>
<path d="M300 1500 l0 -60 60 0 60 0 0 60 0 60 -60 0 -60 0 0 -60z"/>
</g>
</svg>
